<?xml version="1.0" encoding="UTF-8" standalone="no"?>
<!-- Generator: Adobe Illustrator 21.1.0, SVG Export Plug-In . SVG Version: 6.00 Build 0)  -->

<svg
   xmlns:dc="http://purl.org/dc/elements/1.1/"
   xmlns:cc="http://creativecommons.org/ns#"
   xmlns:rdf="http://www.w3.org/1999/02/22-rdf-syntax-ns#"
   xmlns:svg="http://www.w3.org/2000/svg"
   xmlns="http://www.w3.org/2000/svg"
   xmlns:sodipodi="http://sodipodi.sourceforge.net/DTD/sodipodi-0.dtd"
   xmlns:inkscape="http://www.inkscape.org/namespaces/inkscape"
   version="1.1"
   id="Layer_1"
   x="0px"
   y="0px"
   viewBox="0 0 4096.0001 4096"
   xml:space="preserve"
   sodipodi:docname="alba-logo.svg"
   width="4096"
   height="4096"
   inkscape:export-filename="G:\Users\suitedoalex\sites\alba-logo.png"
   inkscape:export-xdpi="120.74841"
   inkscape:export-ydpi="120.74841"
   inkscape:version="0.92.2 (5c3e80d, 2017-08-06)"><metadata
     id="metadata112"><rdf:RDF><cc:Work
         rdf:about=""><dc:format>image/svg+xml</dc:format><dc:type
           rdf:resource="http://purl.org/dc/dcmitype/StillImage" /><dc:title /></cc:Work></rdf:RDF></metadata><defs
     id="defs110" /><sodipodi:namedview
     pagecolor="#ffffff"
     bordercolor="#666666"
     borderopacity="1"
     objecttolerance="10"
     gridtolerance="10"
     guidetolerance="10"
     inkscape:pageopacity="0"
     inkscape:pageshadow="2"
     inkscape:window-width="1600"
     inkscape:window-height="837"
     id="namedview108"
     showgrid="false"
     inkscape:zoom="0.074242466"
     inkscape:cx="755.77382"
     inkscape:cy="2573.3471"
     inkscape:window-x="-8"
     inkscape:window-y="-8"
     inkscape:window-maximized="1"
     inkscape:current-layer="Layer_1" /><style
     type="text/css"
     id="style2">
	.st0{fill:#022169;}
	.st1{fill:url(#SVGID_1_);}
	.st2{fill:url(#SVGID_2_);}
	.st3{opacity:0.15;}
	.st4{fill:#003366;}
	.st5{fill:#A02322;}
	.st6{fill:url(#SVGID_3_);}
	.st7{fill:#FFFFFF;}
	.st8{fill:#162667;}
</style><g
     id="g105"
     transform="matrix(17.437337,0,0,17.437337,418.20725,1082.182)"
     inkscape:export-xdpi="11.791837"
     inkscape:export-ydpi="11.791837"
     inkscape:export-filename="G:\Users\suitedoalex\sites\alba-logo-5.png"><g
       id="g12"><path
         class="st0"
         d="m 41.2,63.1 c -0.7,-1.7 -1.9,-3 -4.3,-3 h -9.6 c 0.7,1.2 1.5,3 0.2,6 L 9.5,108 c -0.4,0.8 -0.2,1.8 1,1.8 H 20 L 24.8,98.3 H 43 l 4.3,10.4 c 0.5,1.1 1,1.1 2.3,1.1 H 60.8 Z M 27.9,90.9 34,76.1 40.1,90.9 Z"
         id="path4"
         inkscape:connector-curvature="0"
         style="fill:#022169" /><path
         class="st0"
         d="m 71.5,63.6 h -10 c 1.2,1.5 2,3.3 2,5.4 v 39.4 c 0,0.8 0.6,1.4 1.4,1.4 H 75.4 V 67.5 c -0.1,-2.2 -1.8,-3.9 -3.9,-3.9 z"
         id="path6"
         inkscape:connector-curvature="0"
         style="fill:#022169" /><path
         class="st0"
         d="m 136.5,73.4 c -4.3,0 -9,0.8 -12.8,1.8 l 0.4,2.7 c 0.4,2.3 2.4,3.5 5.4,3 1.6,-0.3 4.3,-0.8 6.7,-0.8 4.5,0 7.1,1.2 7.1,7 v 0.6 c -11.1,-2.5 -23.2,1.5 -23.2,11.5 0,7.7 6.3,11.5 16,11.5 8,0 10.7,-2.3 14.7,-2.3 1.8,0 2.7,0.1 4.5,0.6 V 85.1 c 0,-9 -10.2,-11.7 -18.8,-11.7 z m 0.7,31.4 c -3.4,0 -6.1,-2.2 -6.1,-6 0,-5.5 6,-6.7 12.2,-5.4 v 5.3 c 0.1,4 -2.7,6.1 -6.1,6.1 z"
         id="path8"
         inkscape:connector-curvature="0"
         style="fill:#022169" /><path
         class="st0"
         d="m 99.3,73.3 c -2.3,0 -4.3,0.4 -6.1,1 v -6.8 c 0,-2.1 -1.7,-3.9 -3.9,-3.9 h -10 c 1.2,1.5 2,3.3 2,5.4 v 39.9 0 0 c 1.7,-0.5 2.6,-0.6 4.5,-0.6 4,0 6.7,2.3 14.7,2.3 10.4,0 16.9,-8.3 16.9,-18.7 0,-10.5 -7.4,-18.6 -18.1,-18.6 m -6.1,7 c 1.8,-0.6 3.4,-0.8 4.5,-0.8 5.9,0 8.2,5.2 8.2,12.7 0,8.6 -1.7,12.5 -6.6,12.5 -3.4,0 -6.1,-2 -6.1,-6.1 z"
         id="path10"
         inkscape:connector-curvature="0"
         style="fill:#022169" /></g><g
       id="g95"><linearGradient
         id="SVGID_1_"
         gradientUnits="userSpaceOnUse"
         x1="26.832001"
         y1="25.283199"
         x2="93.042397"
         y2="56.1577"><stop
           offset="0"
           style="stop-color:#AE1D1F"
           id="stop14" /><stop
           offset="0.1458"
           style="stop-color:#BD431F"
           id="stop16" /><stop
           offset="0.3487"
           style="stop-color:#D0731F"
           id="stop18" /><stop
           offset="0.45"
           style="stop-color:#D7851F"
           id="stop20" /><stop
           offset="0.5476"
           style="stop-color:#DD9823"
           id="stop22" /><stop
           offset="0.8162"
           style="stop-color:#EEC82F"
           id="stop24" /><stop
           offset="0.95"
           style="stop-color:#F4DA33"
           id="stop26" /></linearGradient><path
         class="st1"
         d="M 68.4,41.7 C 59.7,39 49.5,33.2 40,19.4 c 0,0 0,0 0,0 -2.1,-2.9 -3.3,-5 -3.3,-5 -0.5,-0.9 -1.3,-2.7 -2.8,-4 C 32.3,9.1 31.4,10.2 30.1,11.1 28.8,12 27.8,11 27,10.2 c -1,-0.9 -2,-1 -2.1,-0.1 0,1.2 1,2.1 0.1,3.5 -0.3,0.5 -0.8,0.8 -1.6,0.8 -2.4,0 -4.5,-4 -6.2,-5.8 C 17,8.4 16.5,8.3 16.4,8.8 16.2,9.5 16.4,10.4 16,10.5 15.4,10.6 14.2,8.4 13.5,7.7 13.1,7.3 12.6,6.9 11.9,6.7 9.8,5.7 9.6,5.3 8,3.6 7.5,3 5.6,1.1 5.1,1.1 4.8,1.1 4.8,1.5 4.7,1.7 4.7,1.9 4.7,2.3 4.4,2.3 4.2,2.3 3.7,1.9 3,1.4 2.3,0.8 1.5,0.3 1,0.1 0.4,0 0.3,0.2 0.1,0.9 0,1.5 0.6,1.5 0.6,1.5 c 0.6,0 1,0.6 1.2,0.9 0.3,0.3 0.6,1 1.9,1.3 1.3,0.3 1.7,1 1.9,1.6 1.6,3.6 2.6,6 2.6,7 C 8.2,13 7.4,13.1 6.3,10.5 5.7,9 5,7.9 4.6,7.2 4.3,6.8 4,6.4 3.5,6.1 2.9,5.6 1.8,5.3 1.1,5.2 0.3,5.1 0.1,5.5 0.2,5.8 c 0.1,0.3 0.4,0.5 0.9,1 2.4,2.1 3.6,3.9 4.6,6.6 0.8,2 2.2,5.2 3.1,7 7.6,14.9 19.7,30.9 47.6,30.9 11.7,0 22.1,-3.1 30.6,-7.1 l 2.9,-1.4 v 0 c -1.8,0.7 -12.6,1.6 -21.5,-1.1 z"
         id="path29"
         inkscape:connector-curvature="0"
         style="fill:url(#SVGID_1_)" /><linearGradient
         id="SVGID_2_"
         gradientUnits="userSpaceOnUse"
         x1="42.545101"
         y1="34.074902"
         x2="154.7417"
         y2="14.2916"><stop
           offset="0"
           style="stop-color:#DA9033"
           id="stop31" /><stop
           offset="2.336113e-02"
           style="stop-color:#DC9A34"
           id="stop33" /><stop
           offset="0.1225"
           style="stop-color:#E5C238"
           id="stop35" /><stop
           offset="0.2015"
           style="stop-color:#EBDA3B"
           id="stop37" /><stop
           offset="0.25"
           style="stop-color:#EDE33C"
           id="stop39" /><stop
           offset="0.6"
           style="stop-color:#8AB53C"
           id="stop41" /><stop
           offset="0.6406"
           style="stop-color:#84B24F"
           id="stop43" /><stop
           offset="0.8145"
           style="stop-color:#6DA69C"
           id="stop45" /><stop
           offset="0.9385"
           style="stop-color:#5E9FCC"
           id="stop47" /><stop
           offset="1"
           style="stop-color:#589CDE"
           id="stop49" /></linearGradient><path
         class="st2"
         d="m 68.7,40.5 c 27,7.2 36.5,-12.1 42.9,-19.6 0.6,-0.7 1.1,-1.3 1.7,-1.9 0.4,-0.5 0.9,-1 1.4,-1.5 -38.4,16.7 -72.1,3.1 -74.7,1.9 0,0 0,0 0,0 0,0 0,0 0,0 0.4,0.6 12.7,16.8 28.7,21.1 z"
         id="path52"
         inkscape:connector-curvature="0"
         style="fill:url(#SVGID_2_)" /><g
         class="st3"
         id="g58"
         style="opacity:0.15"><g
           id="g56"><path
             class="st4"
             d="m 111.5,20.9 v 0 c -0.9,0.7 -2.6,1.9 -4,3.1 0,0 -1.1,0.9 -2.2,1.6 -3,2 -4.7,0.7 -10.6,1.1 -3.3,0.2 -6.6,0.8 -9.4,1.5 -2.3,0.5 -5.3,1.2 -5.3,2.1 0,0.5 1.2,0.6 3.2,0.9 0.8,0.1 1.5,0.3 1.5,0.7 0,0.4 -0.6,0.7 -1.3,1 -2.5,0.9 -5.7,1.5 -8.5,2 3.4,0.3 7,0.3 10.8,0.1 0.6,0 1.1,0.2 1.4,0.5 0.4,0.4 0.6,1 0.2,1.6 -0.7,1.1 -2.5,1.5 -4.5,2.2 -1.9,0.7 -4.2,1.6 -5.4,2.4 17.8,0.9 27.7,-13.3 34.1,-20.8 z"
             id="path54"
             inkscape:connector-curvature="0"
             style="fill:#003366" /></g></g><path
         class="st5"
         d="m 40,19.4 c -2.1,-2.9 -3.2,-5 -3.2,-5 C 36.6,14 36.3,13.4 35.9,12.7 35.5,12 35,11.1 34,11.4 c -1.6,0.5 -2.1,7.9 0.4,15.4 0,0 2,6 7.6,9.9 0,0 0.2,0.1 0.2,0 v -0.1 c 0,0 0,-0.1 -0.1,-0.2 -0.4,-0.4 -3.6,-2.9 -4.7,-7.3 -0.7,-2.7 -0.5,-3.8 -0.1,-4.2 0.2,-0.2 0.5,-0.2 0.7,-0.1 0,0 0.5,0.3 1.8,1.6 4.9,4.4 10.8,10.1 18.3,11.3 C 52.1,33.9 46,28.1 40,19.4 Z"
         id="path60"
         inkscape:connector-curvature="0"
         style="fill:#a02322" /><path
         class="st5"
         d="m 79.9,46.5 c -7.8,2.8 -15.7,4.2 -23.4,4.2 -22,0 -33.6,-10.2 -41,-21.6 0,0 4.5,5.9 9.2,8.7 3.8,2.3 7.4,2.2 9.6,-0.1 C 49,51.1 63.9,51 79.9,46.5 Z"
         id="path62"
         inkscape:connector-curvature="0"
         style="fill:#a02322" /><linearGradient
         id="SVGID_3_"
         gradientUnits="userSpaceOnUse"
         x1="124.2039"
         y1="17.9335"
         x2="170.4718"
         y2="56.756901"><stop
           offset="0"
           style="stop-color:#81B90A"
           id="stop64" /><stop
           offset="0.1414"
           style="stop-color:#5EB547"
           id="stop66" /><stop
           offset="0.2829"
           style="stop-color:#3FB17D"
           id="stop68" /><stop
           offset="0.4148"
           style="stop-color:#27AEA7"
           id="stop70" /><stop
           offset="0.5332"
           style="stop-color:#15ACC6"
           id="stop72" /><stop
           offset="0.634"
           style="stop-color:#0BAAD8"
           id="stop74" /><stop
           offset="0.7052"
           style="stop-color:#07AADF"
           id="stop76" /><stop
           offset="0.7473"
           style="stop-color:#08A4DA"
           id="stop78" /><stop
           offset="0.8026"
           style="stop-color:#0A94CB"
           id="stop80" /><stop
           offset="0.865"
           style="stop-color:#0D79B2"
           id="stop82" /><stop
           offset="0.9325"
           style="stop-color:#115390"
           id="stop84" /><stop
           offset="1"
           style="stop-color:#162667"
           id="stop86" /></linearGradient><path
         class="st6"
         d="M 166.8,12.5 C 155.8,7.2 142.4,4.3 131,8.2 c -15.3,5.2 -21.3,21.2 -32.8,30 6.9,-4.2 11.4,-7.7 13.1,-9 4.7,-3.7 22.7,-15.4 34.7,-14.5 7.3,0.6 11.2,4.9 11.2,4.9 0,0.1 0.1,0.1 0.2,0.2 0,0 0.1,0 0.1,0.1 1.4,1.8 2.5,3.8 4.9,5.7 8,6.3 12.9,0.8 17.7,6.5 3.7,4.6 4.4,7.2 4.4,10.8 0.1,3.5 -1,9.3 -1.7,11.9 l 1,-0.2 1.1,-0.7 c 3.2,-9.7 1.9,-17.3 0,-22.8 -3.6,-9.8 -17.5,-18.3 -18.1,-18.6 z"
         id="path89"
         inkscape:connector-curvature="0"
         style="fill:url(#SVGID_3_)" /><g
         id="g93"><path
           class="st7"
           d="m 114.6,17.5 c -0.5,0.5 -1,1 -1.4,1.5 -0.5,0.6 -1.1,1.2 -1.7,1.9 -6.4,7.5 -16.3,21.7 -34.1,20.8 v 0 C 74.7,41.6 71.7,41.1 68.6,40.1 52.9,35.4 40.4,20 40,19.5 c 0,0 0,0 0,0 0,0 0,0 0,0 9.6,13.7 19.3,20.4 28,23.1 4.6,1.4 8.6,2 12.3,2 3.7,0 6.9,-0.7 9.7,-1.7 12.2,-4.5 18.3,-16.9 27.6,-25.9 3.6,-3.6 0.4,-2.9 -3,0.5 z"
           id="path91"
           inkscape:connector-curvature="0"
           style="fill:#ffffff" /></g></g><g
       id="g103"><g
         id="g99"><path
           class="st8"
           d="m 170.9,64.1 c 0.8,-0.7 0.7,-4.1 0.7,-4.1 0,0 -1.3,-2.1 -2.7,-1.7 -1.3,0.5 -1.3,2.8 -1.1,4.8 0.3,2 2.3,1.7 3.1,1 z"
           id="path97"
           inkscape:connector-curvature="0"
           style="fill:#162667" /></g><path
         class="st8"
         d="m 181.1,61.6 c 5.6,-8.5 5.6,-17.7 5.6,-17.7 0,-4.9 -0.3,-17.3 -11.1,-24.9 9.2,7.5 11.3,18.9 8.6,30.1 -0.2,0.7 -0.8,3.3 -1,3.9 -0.8,3.3 -1.6,5.7 -3.8,9.4 l -2.5,1.2 c -1.5,1.7 -2.9,2.1 -3.7,2.5 -1.2,0.4 -4,1.4 -6.2,1.9 -1.8,0.5 -4.8,0.1 -5.9,-0.8 -1,-0.9 -0.9,-1.7 -0.6,-2.7 0.3,-0.9 -0.5,-0.9 -0.5,-0.9 -1.4,0.1 -1.3,1.2 -1.3,1.2 0,0.3 0.4,2.2 2.5,4 2,1.8 4.2,1.7 4.5,1.7 0.6,0 1.5,0.1 2.7,1 1,0.8 1.1,1.7 1,3 -0.1,2.5 -1,2 -3.3,5.2 -0.8,1.1 -2.4,4 -2.8,4.7 -0.4,0.7 -0.9,1 -1.4,1.3 -0.4,0.2 -0.5,0.3 -1.2,1.8 -0.4,0.9 -0.5,1.7 0.4,1.7 0.9,0 1.8,-1.4 2,-1.8 0.2,-0.4 0.5,-0.9 1.1,-1.6 0.4,-0.5 0.8,-1 1.2,-1.4 0.3,-0.4 0.7,-0.8 1.1,-1.2 0.5,-0.4 1.1,-0.9 1.7,-1.2 0.8,-0.5 1,-0.9 1.3,-1.1 0.3,-0.3 1.2,-1 1.9,-1 0.7,0 1.1,0.6 1.1,2.2 0,1.7 -0.5,3.8 -1.1,5.2 -0.6,1.4 -1.2,2.4 -2.5,4.9 -0.5,0.9 -1,1.7 -1.5,2.3 -0.9,1.2 -1.5,1.6 -2,2.3 -0.1,0.2 -0.2,0.4 -0.3,0.6 -0.4,0.9 -0.1,1.7 0.8,1.7 0.5,0 1.2,-0.2 1.8,-0.8 0.3,-0.3 0.6,-0.7 1.2,-2.2 0.1,-0.2 0.3,-0.9 0.5,-1.2 1.2,-2.8 2.6,-4.1 4.2,-6.6 0.8,-1.2 3.5,-5.3 3.1,-11.5 -0.1,-1.6 -0.4,-2.3 -0.3,-4.3 -0.2,-4.6 1.7,-6.8 4.7,-10.9 z"
         id="path101"
         inkscape:connector-curvature="0"
         style="fill:#162667" /></g></g></svg>